<svg xmlns="http://www.w3.org/2000/svg" viewBox="0 0 160 172">
  <defs><linearGradient id="b" x1="0" y1="0" x2="0" y2="1"><stop offset="0" stop-color="#86e8b8"/><stop offset="1" stop-color="#27b06e"/></linearGradient><linearGradient id="m" x1="0" y1="0" x2="1" y2="0"><stop offset="0" stop-color="#b9c2d3"/><stop offset=".5" stop-color="#e6ebf3"/><stop offset="1" stop-color="#9aa5ba"/></linearGradient></defs>
  <ellipse cx="80" cy="164" rx="46" ry="6" fill="#20334a" opacity=".1"/>
  <path d="M50 80V56a30 30 0 0 1 60 0v24" fill="none" stroke="url(#m)" stroke-width="14"/>
  <rect x="26" y="72" width="108" height="86" rx="28" fill="url(#b)"/><ellipse cx="50" cy="88" rx="15" ry="7" fill="#fff" opacity=".35" transform="rotate(-18 50 88)"/>
  <circle cx="44" cy="128" r="8" fill="#ff9eb5" opacity=".75"/><circle cx="116" cy="128" r="8" fill="#ff9eb5" opacity=".75"/>
  <path d="M50 112q10-11 20 0M90 112q10-11 20 0" fill="none" stroke="#20334a" stroke-width="5" stroke-linecap="round"/>
  <path d="M64 125q16 24 32 0z" fill="#20334a" stroke="#20334a" stroke-width="4" stroke-linejoin="round"/><ellipse cx="80" cy="137" rx="7" ry="4" fill="#ff8fa8"/>
  <path d="M62 30L84 -2L100 30z" fill="#ffd76a"/><path d="M68 22l24 0M74 13l14 0" stroke="#ff5d8f" stroke-width="4"/><ellipse cx="81" cy="31" rx="21" ry="4" fill="#f0a92b"/><circle cx="84" cy="-1" r="5" fill="#ff5d8f"/><path d="M138 50Q140.56 55.44 146 58Q140.56 60.56 138 66Q135.44 60.56 130 58Q135.44 55.44 138 50z" fill="#ffd76a"/><path d="M22 55Q24.240000000000002 59.76 29 62Q24.240000000000002 64.24 22 69Q19.759999999999998 64.24 15 62Q19.759999999999998 59.76 22 55z" fill="#ffd76a"/><path d="M134 21.5Q135.44 24.56 138.5 26Q135.44 27.44 134 30.5Q132.56 27.44 129.5 26Q132.56 24.56 134 21.5z" fill="#ff9eb5"/><path d="M28 26Q29.28 28.72 32 30Q29.28 31.28 28 34Q26.72 31.28 24 30Q26.72 28.72 28 26z" fill="#8fd4ff"/>
</svg>
